<?xml version="1.0" encoding="UTF-8"?>
<svg version="1.1" xmlns="http://www.w3.org/2000/svg" width="274" height="274">
<path d="M0 0 C0.73912628 0.00337372 1.47825256 0.00674744 2.23977661 0.01022339 C14.25735602 0.08935561 25.70217006 0.91755972 37.25 4.4375 C38.02762695 4.67355957 38.80525391 4.90961914 39.60644531 5.15283203 C57.45523685 10.78184295 73.99139312 19.28838564 88.25 31.4375 C89.12914062 32.17742188 90.00828125 32.91734375 90.9140625 33.6796875 C109.63846914 49.96934157 123.24461773 70.65523138 131.1875 94.125 C131.45771973 94.91841797 131.72793945 95.71183594 132.00634766 96.52929688 C136.28110798 109.94646734 137.81268046 123.17819946 137.6875 137.1875 C137.68412628 137.92662628 137.68075256 138.66575256 137.67727661 139.42727661 C137.59814439 151.44485602 136.76994028 162.88967006 133.25 174.4375 C133.01394043 175.21512695 132.77788086 175.99275391 132.53466797 176.79394531 C126.90565705 194.64273685 118.39911436 211.17889312 106.25 225.4375 C105.51007813 226.31664062 104.77015625 227.19578125 104.0078125 228.1015625 C87.71815843 246.82596914 67.03226862 260.43211773 43.5625 268.375 C42.76908203 268.64521973 41.97566406 268.91543945 41.15820312 269.19384766 C27.74103266 273.46860798 14.50930054 275.00018046 0.5 274.875 C-0.23912628 274.87162628 -0.97825256 274.86825256 -1.73977661 274.86477661 C-13.75735602 274.78564439 -25.20217006 273.95744028 -36.75 270.4375 C-37.52762695 270.20144043 -38.30525391 269.96538086 -39.10644531 269.72216797 C-56.95523685 264.09315705 -73.49139312 255.58661436 -87.75 243.4375 C-89.06871094 242.32761719 -89.06871094 242.32761719 -90.4140625 241.1953125 C-109.13846914 224.90565843 -122.74461773 204.21976862 -130.6875 180.75 C-130.95771973 179.95658203 -131.22793945 179.16316406 -131.50634766 178.34570312 C-135.78110798 164.92853266 -137.31268046 151.69680054 -137.1875 137.6875 C-137.18412628 136.94837372 -137.18075256 136.20924744 -137.17727661 135.44772339 C-137.09814439 123.43014398 -136.26994028 111.98532994 -132.75 100.4375 C-132.51394043 99.65987305 -132.27788086 98.88224609 -132.03466797 98.08105469 C-126.40565705 80.23226315 -117.89911436 63.69610688 -105.75 49.4375 C-105.01007813 48.55835938 -104.27015625 47.67921875 -103.5078125 46.7734375 C-87.21815843 28.04903086 -66.53226862 14.44288227 -43.0625 6.5 C-42.26908203 6.22978027 -41.47566406 5.95956055 -40.65820312 5.68115234 C-27.24103266 1.40639202 -14.00930054 -0.12518046 0 0 Z " fill="#18181A" transform="translate(136.75,-0.4375)"/>
<path d="M0 0 C3.63 1.65 7.26 3.3 11 5 C10.67 3.68 10.34 2.36 10 1 C17.74601377 0.88339414 25.4918163 0.79492846 33.23849106 0.74093914 C36.83688432 0.71500729 40.43467072 0.67991781 44.03271484 0.62280273 C47.51465945 0.56788581 50.99602592 0.53845659 54.47837067 0.52561378 C56.43245033 0.51207842 58.38630212 0.47314339 60.34002686 0.43351746 C73.45844415 0.4294578 83.84074732 4.91970966 93.125 14.1015625 C102.04760784 23.64744074 104.51830782 32.03464946 104.2734375 44.88671875 C103.83003948 54.46367696 99.36014424 62.95258743 93 70 C88.35820411 73.92514469 83.51705805 77.41589787 78 80 C79.71179465 83.58079493 81.7087964 86.97544479 83.75 90.375 C84.12979004 91.00841309 84.50958008 91.64182617 84.90087891 92.29443359 C90.27185753 101.18440174 95.90688749 109.91079272 101.51708984 118.65087891 C102.0064502 119.42608887 102.49581055 120.20129883 103 121 C103.55768066 121.88220215 104.11536133 122.7644043 104.68994141 123.67333984 C106 126 106 126 106 128 C95.77450781 129.0763676 85.60342606 124.86182097 77.25 119.0625 C67.86794431 111.01571815 61.4840987 99.42596445 55.2199707 88.94018555 C51.27722161 82.35573089 47.04935999 75.98811491 42.70727539 69.66088867 C42.22250732 68.94779541 41.73773926 68.23470215 41.23828125 67.5 C40.589198 66.55640625 40.589198 66.55640625 39.92700195 65.59375 C39 64 39 64 39 62 C39.6798999 61.98541748 40.3597998 61.97083496 41.06030273 61.95581055 C44.18656282 61.8806358 47.31183482 61.78420768 50.4375 61.6875 C51.50677734 61.66494141 52.57605469 61.64238281 53.67773438 61.61914062 C61.15877007 61.36748499 68.38303415 60.95068266 74.375 56.0625 C74.91125 55.381875 75.4475 54.70125 76 54 C76.556875 53.319375 77.11375 52.63875 77.6875 51.9375 C81.2352352 46.70036708 80.62408007 40.04712067 80 34 C77.75480017 27.84835383 72.72278531 23.35530633 68 19 C67.34 19.66 66.68 20.32 66 21 C63.02705693 21.17880086 60.15911877 21.23423765 57.1875 21.1875 C56.3011084 21.175979 55.4147168 21.16445801 54.50146484 21.15258789 C52.62214205 21.12336279 50.74289818 21.08862521 48.86376953 21.04882812 C46.07340324 21.00125155 43.28676449 21.00564228 40.49609375 21.015625 C26.5941929 20.90757588 15.77091246 18.29796522 5.33203125 8.4140625 C0 2.75366569 0 2.75366569 0 0 Z " fill="#A3A4A7" transform="translate(66,83)"/>
<path d="M0 0 C0.94875 0.825 1.8975 1.65 2.875 2.5 C14.55316914 13.36066731 14.55316914 13.36066731 29 19 C29 19.33 29 19.66 29 20 C18.42153568 21.11352256 8.08412356 16.65551165 -0.3125 10.375 C-3.0545046 8.15005913 -4.60240316 6.24923529 -6 3 C-4.02 2.01 -2.04 1.02 0 0 Z " fill="#818183" transform="translate(143,191)"/>
<path d="M0 0 C21.45 0 42.9 0 65 0 C65 0.33 65 0.66 65 1 C53.60597346 1.63216083 42.22558708 2.10234187 30.8125 2.125 C29.89460693 2.12951172 28.97671387 2.13402344 28.03100586 2.13867188 C21.64164096 2.1248008 15.35267122 1.67208644 9 1 C9.33 2.32 9.66 3.64 10 5 C8.51800098 4.55090939 7.03944764 4.09043436 5.5625 3.625 C4.73878906 3.36976562 3.91507812 3.11453125 3.06640625 2.8515625 C1 2 1 2 0 0 Z " fill="#525255" transform="translate(67,83)"/>
<path d="M0 0 C3.80635497 3.20760251 7.54563567 6.40746109 11 10 C10.67 10.66 10.34 11.32 10 12 C9.46890625 11.57847656 8.9378125 11.15695313 8.390625 10.72265625 C7.68421875 10.17480469 6.9778125 9.62695312 6.25 9.0625 C5.55390625 8.51722656 4.8578125 7.97195312 4.140625 7.41015625 C0.00254498 4.68415828 -4.12441484 4.83719496 -8.99609375 4.71875 C-10.0019326 4.69113586 -10.0019326 4.69113586 -11.02809143 4.66296387 C-13.16447522 4.60444089 -15.30093709 4.55154148 -17.4375 4.5 C-20.24885395 4.43201156 -23.05997565 4.35831602 -25.87109375 4.28125 C-27.11818115 4.25095703 -28.36526855 4.22066406 -29.65014648 4.18945312 C-32.54670215 4.02563655 -35.18203369 3.6617114 -38 3 C-38 2.67 -38 2.34 -38 2 C-25.79 2 -13.58 2 -1 2 C-0.67 1.34 -0.34 0.68 0 0 Z " fill="#3E3E40" transform="translate(133,101)"/>
<path d="M0 0 C7.425 0.99 7.425 0.99 15 2 C14.67 2.99 14.34 3.98 14 5 C13.34 5 12.68 5 12 5 C12 4.34 12 3.68 12 3 C10.02 4.32 8.04 5.64 6 7 C7.36983503 10.16115776 7.9890638 10.9927092 11 13 C6.15340923 12.40895235 2.39251833 11.02055843 -2 9 C-0.68 7.68 0.64 6.36 2 5 C1.34 3.35 0.68 1.7 0 0 Z " fill="#8B8B8D" transform="translate(84,90)"/>
<path d="M0 0 C0.33 0 0.66 0 1 0 C1.95419847 19.46564885 1.95419847 19.46564885 -4 28 C-4.66 28.99 -5.32 29.98 -6 31 C-6.99 30.67 -7.98 30.34 -9 30 C-8.505 28.515 -8.505 28.515 -8 27 C-8.20625 26.34 -8.4125 25.68 -8.625 25 C-8.74875 24.34 -8.8725 23.68 -9 23 C-7.4657452 20.81974318 -6.35666511 20.11209475 -3.8125 19.3125 C-3.214375 19.209375 -2.61625 19.10625 -2 19 C-1.0672582 14.900639 -0.71174738 10.87956712 -0.4375 6.6875 C-0.35371094 5.43324219 -0.26992187 4.17898437 -0.18359375 2.88671875 C-0.12300781 1.93410156 -0.06242188 0.98148437 0 0 Z " fill="#E1E1E3" transform="translate(168,118)"/>
<path d="M0 0 C5.20699853 4.44126345 7.92118205 9.95874554 11 16 C4.83543524 15.62257767 1.82624485 13.84129692 -3 10 C-2.360625 9.896875 -1.72125 9.79375 -1.0625 9.6875 C-0.0415625 9.3471875 -0.0415625 9.3471875 1 9 C2.25541557 5.23375329 1.37061958 3.62811066 0 0 Z " fill="#D9D9DB" transform="translate(161,194)"/>
<path d="M0 0 C5.28 2.31 10.56 4.62 16 7 C15.67 8.98 15.34 10.96 15 13 C14.01 12.34 13.02 11.68 12 11 C11.19175781 10.87496094 10.38351563 10.74992187 9.55078125 10.62109375 C6.32520338 9.83569271 5.28635895 8.59119063 3.1875 6.0625 C2.58292969 5.35222656 1.97835937 4.64195313 1.35546875 3.91015625 C0 2 0 2 0 0 Z " fill="#B8B8BA" transform="translate(66,83)"/>
<path d="M0 0 C3.31893403 1.14088357 6.08202476 2.65034199 9 4.5625 C11.98843823 6.4868731 14.39463121 7.66199668 18 8 C18 8.33 18 8.66 18 9 C9.71323376 9.70226833 3.55695694 7.27039868 -4 4 C-3.01 3.67 -2.02 3.34 -1 3 C-0.67 2.01 -0.34 1.02 0 0 Z " fill="#5D5D5F" transform="translate(154,202)"/>
<path d="M0 0 C6.03757503 5.47155237 12.97606321 12.68804254 14 21 C13.34 21 12.68 21 12 21 C10.67138672 19.28759766 10.67138672 19.28759766 9.1796875 16.9140625 C8.64472656 16.06585938 8.10976562 15.21765625 7.55859375 14.34375 C7.00300781 13.4465625 6.44742188 12.549375 5.875 11.625 C5.31167969 10.73554688 4.74835938 9.84609375 4.16796875 8.9296875 C0 2.26901105 0 2.26901105 0 0 Z " fill="#C3C3C6" transform="translate(110,152)"/>
<path d="M0 0 C-5.08372698 2.10084617 -9.03377407 2.10793182 -14.375 1.625 C-15.11105469 1.56828125 -15.84710938 1.5115625 -16.60546875 1.453125 C-18.40452468 1.31293882 -20.20241939 1.15798214 -22 1 C-22.33 1.66 -22.66 2.32 -23 3 C-23.99 3.495 -23.99 3.495 -25 4 C-25.99 3.34 -26.98 2.68 -28 2 C-28 1.34 -28 0.68 -28 0 C-24.08375299 -0.19706355 -20.16699634 -0.38099159 -16.25 -0.5625 C-15.13882813 -0.61857422 -14.02765625 -0.67464844 -12.8828125 -0.73242188 C-11.81289062 -0.78076172 -10.74296875 -0.82910156 -9.640625 -0.87890625 C-8.65610352 -0.9260376 -7.67158203 -0.97316895 -6.65722656 -1.02172852 C-4.2293192 -1.00187518 -2.30838443 -0.71119313 0 0 Z " fill="#77777A" transform="translate(133,145)"/>
<path d="M0 0 C3.12031255 2.05049111 5.04088825 4.39646669 7.1875 7.4375 C7.5 10.3125 7.5 10.3125 7.1875 12.4375 C5.8675 12.7675 4.5475 13.0975 3.1875 13.4375 C3.8475 11.4575 4.5075 9.4775 5.1875 7.4375 C4.1975 7.1075 3.2075 6.7775 2.1875 6.4375 C2.1875 5.7775 2.1875 5.1175 2.1875 4.4375 C-1.43576739 3.2297442 -2.45396369 3.89438872 -5.8125 5.4375 C-3.47359785 -1.07801313 -3.47359785 -1.07801313 0 0 Z " fill="#D2D2D4" transform="translate(157.8125,96.5625)"/>
<path d="M0 0 C1.37562854 1.28965176 2.70766393 2.62689293 4 4 C4 4.66 4 5.32 4 6 C4.99 6.33 5.98 6.66 7 7 C7 8.98 7 10.96 7 13 C3.16031141 11.5435664 1.68993538 9.71785783 0 6 C-0.1875 2.6875 -0.1875 2.6875 0 0 Z " fill="#A9AAAC" transform="translate(123,169)"/>
<path d="M0 0 C2.88437779 1.29299694 4.87219421 2.65941363 7 5 C6.01 6.485 6.01 6.485 5 8 C2.375 8.1875 2.375 8.1875 0 8 C-0.79953138 4.71303767 -1.09658936 3.28976808 0 0 Z " fill="#777779" transform="translate(148,197)"/>
<path d="M0 0 C0.66 0 1.32 0 2 0 C3.30677587 10.35368578 3.30677587 10.35368578 2 15 C2 15.66 2 16.32 2 17 C1.34 17 0.68 17 0 17 C-1.14819277 11.1314592 -0.77313045 5.9114744 0 0 Z " fill="#BEBEC0" transform="translate(148,122)"/>
<path d="M0 0 C0.66 2.97 1.32 5.94 2 9 C-2.98777148 6.50611426 -3.51258849 4.79715076 -6 0 C-4 -1 -4 -1 0 0 Z " fill="#808082" transform="translate(117,152)"/>
<path d="M0 0 C6.1796648 1.17200539 9.43966604 2.66768274 14 7 C13.67 7.66 13.34 8.32 13 9 C12.01 8.67 11.02 8.34 10 8 C10 7.34 10 6.68 10 6 C9.34 6 8.68 6 8 6 C7.34 5.34 6.68 4.68 6 4 C5.34 4 4.68 4 4 4 C3.67 4.66 3.34 5.32 3 6 C2.67 4.68 2.34 3.36 2 2 C1.34 2 0.68 2 0 2 C0 1.34 0 0.68 0 0 Z " fill="#B7B8BA" transform="translate(143,88)"/>
<path d="M0 0 C3.80635497 3.20760251 7.54563567 6.40746109 11 10 C10.67 10.66 10.34 11.32 10 12 C9.45730469 11.59007813 8.91460937 11.18015625 8.35546875 10.7578125 C7.64003906 10.21898438 6.92460937 9.68015625 6.1875 9.125 C5.47980469 8.59132813 4.77210938 8.05765625 4.04296875 7.5078125 C2.39543703 6.29185219 0.70375789 5.13583859 -1 4 C-0.67 2.68 -0.34 1.36 0 0 Z " fill="#4F4F52" transform="translate(133,101)"/>
<path d="M0 0 C3.63 1.65 7.26 3.3 11 5 C11 5.66 11 6.32 11 7 C8.3125 7.875 8.3125 7.875 5 8 C2.75795191 6.22142439 1.62159646 4.43239469 0 2 C0 1.34 0 0.68 0 0 Z " fill="#CCCCCE" transform="translate(66,83)"/>
<path d="M0 0 C0.93423645 3.01031744 1.04449911 3.86650268 0 7 C-0.66 7 -1.32 7 -2 7 C-2.66 8.65 -3.32 10.3 -4 12 C-5.32 11.34 -6.64 10.68 -8 10 C-7.34 10 -6.68 10 -6 10 C-5.7525 9.46375 -5.505 8.9275 -5.25 8.375 C-3.70303025 5.43575748 -1.86985631 2.74245592 0 0 Z " fill="#252527" transform="translate(165,143)"/>
<path d="M0 0 C0.66 0 1.32 0 2 0 C3.0064275 1.66279327 4.00585407 3.32983484 5 5 C5.99 5.66 6.98 6.32 8 7 C4.0507432 6.44894091 0.65079826 5.61064629 -3 4 C-1.625 2 -1.625 2 0 0 Z " fill="#838486" transform="translate(87,96)"/>
<path d="M0 0 C0.66 0.66 1.32 1.32 2 2 C1.01 3.32 0.02 4.64 -1 6 C-2.9375 5.625 -2.9375 5.625 -5 5 C-5.33 4.34 -5.66 3.68 -6 3 C-4.02 2.01 -2.04 1.02 0 0 Z " fill="#8E8E90" transform="translate(143,191)"/>
<path d="M0 0 C0.99 0.33 1.98 0.66 3 1 C2.67 2.32 2.34 3.64 2 5 C1.34 4.67 0.68 4.34 0 4 C-0.33 4.66 -0.66 5.32 -1 6 C-1.66 5.01 -2.32 4.02 -3 3 C-2.01 2.01 -1.02 1.02 0 0 Z " fill="#C5C5C7" transform="translate(155,185)"/>
<path d="M0 0 C1.65 1.65 3.3 3.3 5 5 C4.34 5.66 3.68 6.32 3 7 C0.875 6.625 0.875 6.625 -1 6 C-0.67 4.02 -0.34 2.04 0 0 Z " fill="#242426" transform="translate(68,87)"/>
<path d="M0 0 C4.87362847 0.45336079 7.39042389 1.7089159 11 5 C10.46375 4.855625 9.9275 4.71125 9.375 4.5625 C6.60084173 3.90546252 3.81474612 3.44780052 1 3 C0.67 2.01 0.34 1.02 0 0 Z " fill="#626264" transform="translate(120,95)"/>
<path d="M0 0 C2.64 0 5.28 0 8 0 C8.33 1.32 8.66 2.64 9 4 C6.03 3.01 3.06 2.02 0 1 C0 0.67 0 0.34 0 0 Z " fill="#5F5F61" transform="translate(68,84)"/>
<path d="M0 0 C0.66 0 1.32 0 2 0 C2.99 1.98 3.98 3.96 5 6 C3.35 6 1.7 6 0 6 C0 4.02 0 2.04 0 0 Z " fill="#E0E0E1" transform="translate(167,204)"/>
<path d="M0 0 C0.99 0.33 1.98 0.66 3 1 C2.67 2.32 2.34 3.64 2 5 C-0.97 4.505 -0.97 4.505 -4 4 C-3.01 3.67 -2.02 3.34 -1 3 C-0.67 2.01 -0.34 1.02 0 0 Z " fill="#69696B" transform="translate(154,202)"/>
<path d="M0 0 C1.32 1.32 2.64 2.64 4 4 C3.34 5.32 2.68 6.64 2 8 C0.23537317 4.91190305 0 3.76687864 0 0 Z " fill="#B5B6B9" transform="translate(123,169)"/>
</svg>
